<?xml version="1.0" standalone="no"?>
<!DOCTYPE svg PUBLIC "-//W3C//DTD SVG 20010904//EN"
 "http://www.w3.org/TR/2001/REC-SVG-20010904/DTD/svg10.dtd">
<svg version="1.0" xmlns="http://www.w3.org/2000/svg"
 width="512.000000pt" height="512.000000pt" viewBox="0 0 512.000000 512.000000"
 preserveAspectRatio="xMidYMid meet">

<g transform="translate(0.000000,512.000000) scale(0.100000,-0.100000)"
fill="#000000" stroke="none">
<path d="M400 5104 c-176 -47 -311 -181 -361 -359 -20 -72 -20 -768 0 -840 52
-185 208 -331 390 -365 30 -5 206 -10 395 -10 273 0 354 3 401 15 184 47 323
183 370 360 22 86 22 754 0 840 -46 175 -185 314 -361 359 -87 22 -751 22
-834 0z m777 -374 c62 -37 63 -45 63 -407 0 -311 -1 -330 -20 -361 -36 -59
-55 -62 -406 -62 -344 0 -358 2 -399 58 -19 26 -20 43 -20 367 0 311 2 342 18
366 38 56 53 59 407 59 305 0 327 -1 357 -20z"/>
<path d="M2143 5105 c-171 -46 -309 -179 -357 -344 -13 -46 -16 -116 -16 -435
0 -342 2 -387 19 -442 51 -169 189 -298 363 -339 91 -21 725 -21 816 0 174 41
312 170 363 339 17 55 19 100 19 442 0 319 -3 389 -16 435 -49 167 -187 299
-361 344 -80 21 -752 21 -830 0z m767 -370 c15 -8 38 -27 49 -41 20 -26 21
-37 21 -369 0 -464 39 -425 -420 -425 -348 0 -356 1 -399 56 -20 26 -21 37
-21 368 0 376 -1 367 64 407 29 18 54 19 354 19 266 0 328 -3 352 -15z"/>
<path d="M3875 5101 c-172 -49 -305 -185 -350 -356 -22 -86 -22 -754 0 -840
47 -177 186 -313 370 -360 47 -12 128 -15 401 -15 189 0 365 5 395 10 182 34
338 180 390 365 20 72 20 768 0 840 -51 180 -186 313 -366 359 -91 24 -754 22
-840 -3z m780 -367 c71 -33 70 -30 70 -409 0 -324 -1 -341 -20 -367 -41 -56
-55 -58 -399 -58 -351 0 -370 3 -406 62 -19 31 -20 50 -20 361 0 362 1 370 63
407 30 19 52 20 355 20 275 0 329 -2 357 -16z"/>
<path d="M375 3332 c-162 -54 -275 -168 -331 -332 -17 -50 -19 -90 -19 -440 0
-350 2 -390 19 -440 56 -167 180 -288 341 -335 44 -12 120 -15 433 -15 352 0
385 1 445 20 158 49 282 176 328 338 17 60 19 103 19 432 0 329 -2 372 -19
432 -46 162 -170 289 -328 338 -61 19 -91 20 -452 19 -330 -1 -393 -3 -436
-17z m805 -368 c59 -36 60 -40 60 -404 0 -364 -1 -368 -60 -404 -25 -14 -71
-16 -365 -16 -329 0 -338 1 -367 21 -55 40 -58 58 -58 399 0 339 3 358 56 398
28 21 37 21 367 22 296 0 342 -2 367 -16z"/>
<path d="M2115 3331 c-89 -32 -138 -63 -201 -125 -64 -64 -94 -113 -125 -205
-17 -49 -19 -89 -19 -441 0 -420 0 -423 60 -540 29 -57 133 -161 190 -190 117
-60 120 -60 540 -60 420 0 423 0 540 60 57 29 161 133 190 190 60 117 60 120
60 540 0 420 0 423 -60 540 -29 57 -133 161 -190 190 -117 60 -120 60 -544 59
-349 0 -396 -2 -441 -18z m805 -366 c58 -30 60 -42 60 -405 0 -363 -2 -375
-60 -405 -43 -22 -677 -22 -720 0 -58 30 -60 42 -60 405 0 361 2 374 58 404
41 23 679 23 722 1z"/>
<path d="M3848 3327 c-158 -54 -273 -176 -319 -335 -17 -60 -19 -103 -19 -432
0 -329 2 -372 19 -432 46 -162 170 -289 328 -338 60 -19 93 -20 445 -20 313 0
389 3 433 15 161 47 285 168 341 335 17 50 19 90 19 440 0 350 -2 390 -19 440
-56 167 -180 288 -341 335 -44 12 -120 15 -437 15 -373 -1 -385 -1 -450 -23z
m824 -368 c55 -40 58 -58 58 -399 0 -341 -3 -359 -58 -399 -29 -20 -38 -21
-367 -21 -294 0 -340 2 -365 16 -59 36 -60 40 -60 404 0 288 2 336 16 359 36
60 37 60 407 61 331 0 340 -1 369 -21z"/>
<path d="M421 1579 c-25 -5 -77 -24 -117 -43 -126 -60 -225 -180 -265 -321
-20 -72 -20 -768 0 -840 51 -180 186 -313 366 -359 85 -23 729 -23 824 -1 176
42 320 183 366 360 22 86 22 754 0 840 -47 177 -186 313 -370 360 -48 12 -126
15 -410 14 -192 -1 -370 -5 -394 -10z m744 -373 c19 -8 44 -30 55 -48 19 -31
20 -50 20 -361 0 -362 -1 -370 -63 -407 -30 -19 -52 -20 -355 -20 -354 0 -371
2 -409 58 -16 25 -18 55 -18 367 0 324 1 341 20 367 41 56 52 58 398 58 254 0
325 -3 352 -14z"/>
<path d="M2148 1574 c-170 -41 -309 -171 -359 -338 -17 -55 -19 -100 -19 -442
0 -319 3 -389 16 -435 49 -167 187 -299 361 -344 83 -22 743 -22 826 0 174 45
312 177 361 344 13 46 16 116 16 435 0 342 -2 387 -19 442 -51 169 -189 298
-363 339 -88 20 -735 20 -820 -1z m762 -369 c15 -8 38 -27 49 -41 20 -26 21
-37 21 -369 0 -464 39 -425 -420 -425 -348 0 -356 1 -399 56 -20 26 -21 37
-21 368 0 376 -1 367 64 407 29 18 54 19 354 19 266 0 328 -3 352 -15z"/>
<path d="M3890 1574 c-181 -47 -319 -184 -365 -359 -22 -86 -22 -754 0 -840
46 -175 185 -314 361 -359 90 -23 741 -23 829 0 180 46 315 179 366 359 11 39
14 132 14 420 0 401 -2 417 -57 528 -60 121 -208 231 -347 257 -87 16 -734 12
-801 -6z m763 -369 c18 -9 41 -28 52 -43 19 -26 20 -43 20 -367 0 -312 -2
-342 -18 -367 -38 -55 -56 -58 -407 -58 -355 0 -363 1 -400 63 -19 30 -20 52
-20 362 0 313 1 332 20 363 36 59 51 61 403 62 267 0 324 -3 350 -15z"/>
</g>
</svg>
