<?xml version="1.0" standalone="no"?>
<!DOCTYPE svg PUBLIC "-//W3C//DTD SVG 20010904//EN"
 "http://www.w3.org/TR/2001/REC-SVG-20010904/DTD/svg10.dtd">
<svg version="1.0" xmlns="http://www.w3.org/2000/svg"
 width="512.000000pt" height="512.000000pt" viewBox="0 0 512.000000 512.000000"
 preserveAspectRatio="xMidYMid meet">

<g transform="translate(0.000000,512.000000) scale(0.100000,-0.100000)"
fill="#000000" stroke="none">
<path d="M2200 5105 c-327 -47 -666 -166 -946 -332 -372 -220 -696 -546 -914
-919 -165 -282 -279 -610 -325 -939 -20 -136 -20 -574 0 -710 47 -331 164
-667 332 -951 215 -362 523 -673 889 -896 283 -172 631 -295 969 -343 142 -21
569 -20 717 1 1127 156 2022 1053 2183 2189 20 136 20 574 0 710 -22 156 -53
288 -105 445 -128 391 -332 723 -625 1016 -398 399 -903 652 -1453 728 -138
20 -593 20 -722 1z m581 -305 c155 -16 337 -55 489 -106 831 -276 1423 -1007
1525 -1882 49 -419 -28 -862 -216 -1242 -80 -162 -267 -448 -281 -430 -2 3
-26 36 -53 75 -247 352 -632 640 -1039 779 -375 128 -816 139 -1202 31 -449
-126 -848 -409 -1121 -794 l-67 -94 -23 29 c-66 80 -191 281 -252 404 -386
780 -281 1714 269 2405 357 448 935 763 1511 824 121 12 340 13 460 1z m0
-3034 c196 -27 342 -72 534 -167 77 -38 183 -99 235 -136 164 -116 430 -400
499 -531 15 -29 10 -36 -81 -109 -263 -210 -632 -380 -968 -447 -666 -133
-1367 40 -1871 459 l-79 67 23 39 c50 90 181 251 288 354 271 262 612 426 989
474 104 14 316 12 431 -3z"/>
<path d="M2407 4180 c-537 -97 -873 -611 -747 -1139 81 -337 371 -616 712
-685 100 -21 277 -20 376 0 184 38 353 133 486 275 232 247 311 589 210 912
-95 298 -325 522 -631 613 -71 21 -114 27 -223 29 -74 2 -157 0 -183 -5z m353
-343 c186 -66 328 -217 386 -412 29 -96 25 -250 -9 -348 -56 -162 -165 -287
-312 -357 -95 -46 -159 -60 -265 -60 -106 0 -170 14 -265 60 -147 70 -256 195
-311 355 -23 67 -28 97 -28 185 0 115 16 184 64 280 79 156 225 271 399 315
89 23 249 14 341 -18z"/>
</g>
</svg>
